Coordinates
version=1
nRows=19
nColumns=63
inDegrees=yes

Units are S.I. units (second, meters, Newtons, ...)
If the header above contains a line with 'inDegrees', this indicates whether rotational values are in degrees (yes) or radians (no).

endheader
time	pelvis_tilt	pelvis_list	pelvis_rotation	pelvis_tx	pelvis_ty	pelvis_tz	hip_flexion_r	hip_adduction_r	hip_rotation_r	knee_angle_r	knee_angle_r_beta	ankle_angle_r	subtalar_angle_r	mtp_angle_r	hip_flexion_l	hip_adduction_l	hip_rotation_l	knee_angle_l	knee_angle_l_beta	ankle_angle_l	subtalar_angle_l	mtp_angle_l	L5_S1_Flex_Ext	L5_S1_Lat_Bending	L5_S1_axial_rotation	L4_L5_Flex_Ext	L4_L5_Lat_Bending	L4_L5_axial_rotation	L3_L4_Flex_Ext	L3_L4_Lat_Bending	L3_L4_axial_rotation	L2_L3_Flex_Ext	L2_L3_Lat_Bending	L2_L3_axial_rotation	L1_L2_Flex_Ext	L1_L2_Lat_Bending	L1_L2_axial_rotation	L1_T12_Flex_Ext	L1_T12_Lat_Bending	L1_T12_axial_rotation	Abs_r3	Abs_r2	Abs_r1	Abs_t1	Abs_t2	neck_flexion	neck_bending	neck_rotation	arm_flex_r	arm_add_r	arm_rot_r	elbow_flex_r	pro_sup_r	wrist_flex_r	wrist_dev_r	arm_flex_l	arm_add_l	arm_rot_l	elbow_flex_l	pro_sup_l	wrist_flex_l	wrist_dev_l
1.263158	-4.082459	-9.654234	92.323158	0.151459	0.980863	0.610871	1.655176	-4.314745	-15.611887	9.821288	0.171414	25.901277	18.084290	0.000000	4.562223	3.731659	1.236143	13.240039	0.231082	23.500569	-7.781836	0.000000	-0.244882	-0.245126	1.655873	-0.454771	-0.326018	1.759365	-0.402317	-0.596000	1.759365	-0.279876	-0.596000	1.448889	-0.227398	-0.499861	1.345397	-0.139926	-0.379700	1.241905	-1.749171	-2.772916	9.209469	0.000000	0.000000	18.144101	1.055257	-2.735682	-13.567325	-17.640056	10.379988	65.858591	88.683370	-7.686369	10.991066	-11.551719	-26.404399	9.779043	92.463672	89.226683	-3.465395	33.970498
1.280702	-4.159669	-9.460050	92.625510	0.150833	0.981390	0.609618	1.241912	-4.403137	-16.041950	9.661715	0.168629	25.660368	18.082748	0.000000	4.216193	3.874877	1.921029	13.073616	0.228178	23.270603	-8.068443	0.000000	-0.250618	-0.249343	1.506667	-0.465423	-0.331626	1.600833	-0.411741	-0.606252	1.600833	-0.286432	-0.606252	1.318333	-0.232724	-0.508460	1.224167	-0.143203	-0.386232	1.130000	-1.790141	-2.820617	8.379627	0.000000	0.000000	18.277512	1.349888	-2.318234	-13.104665	-17.372429	9.943264	63.310249	88.554540	-6.523914	11.609233	-12.730771	-26.503138	8.095548	91.998965	89.204520	-0.870806	35.340532
1.298246	-4.261065	-9.268732	92.814417	0.150408	0.981827	0.608445	0.864695	-4.514673	-16.384237	9.537218	0.166456	25.423089	18.093883	0.000000	3.871093	4.025248	2.446406	12.903954	0.225216	23.039761	-8.274339	0.000000	-0.257292	-0.257456	1.390108	-0.477817	-0.342417	1.476989	-0.422705	-0.625979	1.476989	-0.294059	-0.625979	1.216344	-0.238921	-0.525005	1.129462	-0.147017	-0.398800	1.042581	-1.837812	-2.912395	7.731361	0.000000	0.000000	18.490708	1.636456	-1.985352	-12.533312	-17.066033	9.491053	60.555598	88.521641	-5.040729	12.532650	-13.539921	-26.644636	7.038482	91.098015	89.176036	1.053291	35.591159
1.315789	-4.367829	-9.087080	92.900515	0.150128	0.982117	0.607405	0.534807	-4.636208	-16.653606	9.455001	0.165021	25.206320	18.120244	0.000000	3.548733	4.162575	2.763620	12.759175	0.222690	22.852039	-8.333607	0.000000	-0.265226	-0.266088	1.308365	-0.492552	-0.353897	1.390138	-0.435740	-0.646966	1.390138	-0.303127	-0.646966	1.144820	-0.246289	-0.542607	1.063047	-0.151550	-0.412170	0.981274	-1.894485	-3.010040	7.276735	0.000000	0.000000	18.788749	1.896139	-1.704097	-11.875873	-16.721104	8.955205	57.589758	88.694830	-3.385708	13.630427	-13.953447	-26.772962	6.562680	89.786833	89.145882	2.500474	35.043146
1.333333	-4.473126	-8.915232	92.871336	0.149969	0.982226	0.606510	0.258465	-4.764828	-16.831629	9.423516	0.164471	25.030150	18.160770	0.000000	3.245562	4.286877	2.888938	12.630570	0.220445	22.703156	-8.297173	0.000000	-0.274707	-0.273341	1.259928	-0.510159	-0.363544	1.338674	-0.451317	-0.664602	1.338674	-0.313963	-0.664602	1.102437	-0.255093	-0.557398	1.023692	-0.156968	-0.423406	0.944946	-1.962207	-3.092092	7.007342	0.000000	0.000000	19.164541	2.114598	-1.434936	-11.054493	-16.402655	9.046899	54.353115	88.421708	-1.878959	14.577859	-14.002402	-26.832246	6.544760	88.098331	89.115641	3.690423	33.938119
1.350877	-4.532856	-8.762954	92.747343	0.149817	0.982116	0.605807	0.046604	-4.861817	-16.933328	9.445865	0.164861	24.893448	18.213196	0.000000	2.986619	4.359274	2.839647	12.547661	0.218998	22.640022	-8.171475	0.000000	-0.284951	-0.271322	1.242105	-0.529183	-0.360858	1.319736	-0.468146	-0.659692	1.319736	-0.325671	-0.659692	1.086842	-0.264606	-0.553280	1.009210	-0.162821	-0.420278	0.931578	-2.035379	-3.069247	6.908213	0.000000	0.000000	19.621559	2.263774	-1.076936	-10.123742	-16.135244	9.686344	50.912939	87.879599	-0.527863	15.250549	-13.664465	-26.771555	6.968656	86.035471	89.093999	4.515388	32.430955
1.368421	-4.559372	-8.631862	92.521642	0.149681	0.981788	0.605332	-0.093123	-4.939539	-16.954087	9.527762	0.166291	24.811827	18.279029	0.000000	2.774579	4.396506	2.650591	12.505945	0.218270	22.645621	-8.026538	0.000000	-0.296707	-0.261249	1.248916	-0.551015	-0.347462	1.326973	-0.487460	-0.635202	1.326973	-0.339107	-0.635202	1.092801	-0.275522	-0.532740	1.014744	-0.169538	-0.404675	0.936687	-2.119349	-2.955305	6.946096	0.000000	0.000000	20.159159	2.369102	-0.601304	-9.086884	-15.946756	10.987824	47.331168	87.119550	0.365128	15.471363	-12.976935	-26.550570	7.746868	83.570240	89.075953	5.100010	30.496176
1.385965	-4.511955	-8.527802	92.218841	0.149408	0.981223	0.605134	-0.157402	-4.961875	-16.900557	9.663742	0.168664	24.774989	18.355958	0.000000	2.631410	4.363454	2.338414	12.535516	0.218786	22.758247	-7.865667	0.000000	-0.309024	-0.235811	1.276597	-0.573889	-0.313628	1.356384	-0.507696	-0.573350	1.356384	-0.353184	-0.573350	1.117022	-0.286960	-0.480865	1.037235	-0.176576	-0.365271	0.957448	-2.207329	-2.667538	7.100050	0.000000	0.000000	20.770085	2.400699	0.035090	-8.328720	-16.101209	8.532200	44.529559	89.831275	0.397880	15.638113	-11.924170	-26.112702	8.972173	80.639654	89.074459	5.171338	28.059128
1.403509	-4.425270	-8.454258	91.851372	0.149150	0.980499	0.605199	-0.145796	-4.953650	-16.775896	9.848892	0.171896	24.767941	18.430584	0.000000	2.550194	4.289574	1.934646	12.607063	0.220035	22.929071	-7.725626	0.000000	-0.320983	-0.202715	1.320764	-0.596097	-0.269611	1.403312	-0.527343	-0.492882	1.403312	-0.366851	-0.492882	1.155669	-0.298065	-0.413377	1.073121	-0.183410	-0.314006	0.990573	-2.292749	-2.293157	7.345694	0.000000	0.000000	21.423074	2.380700	0.732784	-7.365582	-16.226356	9.149203	41.311512	90.199765	0.168067	14.954180	-10.499090	-25.511811	10.802355	77.225688	89.062723	4.474239	25.170515
1.421053	-4.298782	-8.416462	91.405941	0.148969	0.979643	0.605543	-0.046373	-4.910644	-16.564528	10.085958	0.176033	24.786308	18.505469	0.000000	2.541298	4.168206	1.421340	12.729954	0.222180	23.162745	-7.596662	0.000000	-0.331589	-0.162682	1.388565	-0.615793	-0.216366	1.475351	-0.544767	-0.395544	1.475351	-0.378973	-0.395544	1.214995	-0.307913	-0.331740	1.128209	-0.189470	-0.251994	1.041424	-2.368504	-1.840286	7.722783	0.000000	0.000000	22.096628	2.300141	1.438373	-6.283139	-16.310252	12.388350	37.837390	88.501207	-0.320634	13.612006	-8.725436	-24.771230	13.321865	73.300919	89.056966	2.922305	21.768292
1.438596	-4.146670	-8.415600	90.959845	0.148798	0.978673	0.606089	0.111678	-4.842358	-16.330810	10.339133	0.180452	24.830073	18.577151	0.000000	2.599341	4.019694	0.891051	12.893256	0.225030	23.433066	-7.501755	0.000000	-0.339318	-0.119288	1.462218	-0.630147	-0.158654	1.553607	-0.557465	-0.290038	1.553607	-0.387806	-0.290038	1.279441	-0.315090	-0.243253	1.188052	-0.193886	-0.184778	1.096664	-2.423713	-1.349415	8.132418	0.000000	0.000000	22.757166	2.173709	2.075711	-5.127437	-16.356726	17.902475	34.181225	85.007056	-1.137559	11.529047	-6.737371	-23.889544	16.389348	68.944521	89.076183	0.832116	18.124819
1.456140	-3.981303	-8.449177	90.506263	0.148706	0.977619	0.606820	0.329878	-4.756614	-16.058966	10.612969	0.185231	24.904801	18.637005	0.000000	2.721519	3.852273	0.348759	13.098212	0.228607	23.727523	-7.445773	0.000000	-0.344449	-0.075442	1.545073	-0.639677	-0.100337	1.641640	-0.565896	-0.183429	1.641640	-0.393671	-0.183429	1.351939	-0.319855	-0.153840	1.255372	-0.196818	-0.116859	1.158805	-2.460366	-0.853410	8.593231	0.000000	0.000000	23.392890	2.007310	2.583829	-3.945275	-16.337573	25.214998	30.455301	79.993841	-2.126364	8.967741	-4.619327	-22.915239	19.957790	64.228730	89.116913	-1.677805	14.364462
1.473684	-3.799120	-8.525548	90.029611	0.148747	0.976482	0.607716	0.621740	-4.646787	-15.737564	10.909701	0.190410	25.019592	18.684236	0.000000	2.920330	3.656472	-0.231315	13.353020	0.233054	24.066356	-7.395191	0.000000	-0.345343	-0.031604	1.642865	-0.641337	-0.042033	1.745544	-0.567364	-0.076841	1.745544	-0.394693	-0.076841	1.437506	-0.320686	-0.064446	1.334827	-0.197329	-0.048954	1.232148	-2.466751	-0.357507	9.137119	0.000000	0.000000	24.002763	1.788909	2.916364	-2.782224	-16.254322	33.959620	26.745576	73.731622	-3.404488	5.969750	-2.447336	-21.892768	23.985941	59.256103	89.136449	-4.596850	10.648095
1.491228	-3.630912	-8.637076	89.600882	0.148907	0.975292	0.608673	0.948125	-4.537275	-15.425626	11.199756	0.195473	25.167594	18.719749	0.000000	3.172680	3.468146	-0.748354	13.630815	0.237903	24.408543	-7.380226	0.000000	-0.341881	0.006534	1.726385	-0.634907	0.008690	1.834285	-0.561676	0.015886	1.834285	-0.390736	0.015886	1.510587	-0.317471	0.013324	1.402688	-0.195351	0.010121	1.294789	-2.442023	0.073913	9.601638	0.000000	0.000000	24.567948	1.591475	3.134598	-1.616744	-16.061037	43.719606	23.115142	66.501031	-4.514430	2.833066	-0.408816	-20.829607	28.112572	54.174512	89.091312	-7.282453	7.145572
1.508772	-3.486992	-8.775276	89.225154	0.149206	0.974087	0.609641	1.293833	-4.436077	-15.131953	11.475165	0.200279	25.348413	18.741939	0.000000	3.459555	3.300140	-1.151674	13.909522	0.242767	24.748378	-7.416097	0.000000	-0.335142	0.036954	1.790264	-0.622392	0.049148	1.902156	-0.550605	0.089849	1.902156	-0.383034	0.089849	1.566481	-0.311213	0.075356	1.454590	-0.191500	0.057241	1.342698	-2.393886	0.418026	9.956913	0.000000	0.000000	25.098809	1.429748	3.238147	-0.452217	-15.776092	54.188760	19.654427	58.567487	-5.537812	-0.355495	1.409203	-19.775247	32.145847	49.138412	89.013918	-9.767624	3.985207
1.526316	-3.357420	-8.948669	88.930418	0.149622	0.972894	0.610592	1.660859	-4.331911	-14.892090	11.728961	0.204709	25.548983	18.751069	0.000000	3.793359	3.134889	-1.488850	14.193855	0.247729	25.104802	-7.389755	0.000000	-0.323000	0.060551	1.820784	-0.599844	0.080533	1.934583	-0.530657	0.147224	1.934583	-0.369157	0.147224	1.593186	-0.299938	0.123476	1.479387	-0.184562	0.093794	1.365588	-2.307160	0.684967	10.126657	0.000000	0.000000	25.597286	1.340473	3.311147	0.706057	-15.404914	65.119192	16.437118	50.175997	-6.309274	-3.414388	2.934581	-18.732684	36.021327	44.266531	88.744522	-11.926998	1.244413
1.543860	-3.254611	-9.152184	88.745591	0.150125	0.971756	0.611480	2.030559	-4.236656	-14.730186	11.946450	0.208505	25.766411	18.755776	0.000000	4.159599	2.987339	-1.732990	14.463600	0.252437	25.465750	-7.289924	0.000000	-0.305462	0.075456	1.806830	-0.567273	0.100357	1.919757	-0.501844	0.183465	1.919757	-0.349113	0.183465	1.580977	-0.283652	0.153871	1.468050	-0.174541	0.116882	1.355123	-2.181885	0.853577	10.049049	0.000000	0.000000	26.063864	1.369302	3.408570	1.852219	-14.964202	76.049151	13.587113	41.619891	-6.723882	-6.198432	4.118386	-17.717629	39.589639	39.671529	88.186777	-13.725915	-1.053014
1.561404	-3.176069	-9.375225	88.660924	0.150749	0.970735	0.612307	2.397545	-4.146346	-14.629582	12.135639	0.211807	25.977194	18.751863	0.000000	4.539683	2.852492	-1.900040	14.699929	0.256562	25.798116	-7.122139	0.000000	-0.284155	0.081086	1.753389	-0.527704	0.107844	1.862976	-0.466838	0.197152	1.862976	-0.324760	0.197152	1.534215	-0.263866	0.165350	1.424628	-0.162366	0.125602	1.315042	-2.029688	0.917257	9.751823	0.000000	0.000000	26.491480	1.495316	3.456523	2.957012	-14.472851	86.682700	11.179079	33.180688	-6.833874	-8.626585	4.994699	-16.775081	42.853938	35.453385	87.442093	-15.189208	-2.857317
1.578947	-3.137658	-9.601787	88.689859	0.151481	0.969870	0.613032	2.731626	-4.075178	-14.605176	12.276377	0.214263	26.176100	18.741040	0.000000	4.901850	2.748642	-1.971104	14.875625	0.259629	26.082321	-6.884916	0.000000	-0.260988	0.075199	1.657563	-0.484680	0.100015	1.761160	-0.428777	0.182839	1.761160	-0.298283	0.182839	1.450367	-0.242353	0.153346	1.346770	-0.149128	0.116483	1.243172	-1.864210	0.850668	9.218865	0.000000	0.000000	26.864106	1.750890	3.480002	4.006291	-13.928569	96.696220	9.230669	25.119660	-6.560877	-10.618201	5.548604	-15.932433	45.636882	31.709987	86.450869	-16.316456	-4.225076
